<?xml version="1.0" encoding="UTF-8" standalone="no"?>
<!-- Created with Inkscape (http://www.inkscape.org/) -->

<svg
   width="133.61458mm"
   height="133.61459mm"
   viewBox="0 0 133.61458 133.61459"
   version="1.1"
   id="svg1"
   xmlns="http://www.w3.org/2000/svg"
   xmlns:svg="http://www.w3.org/2000/svg">
  <defs
     id="defs1">
    <filter
       style="color-interpolation-filters:sRGB"
       id="filter98"
       x="-0.15869604"
       y="-0.27447647"
       width="1.3173921"
       height="1.5489529">
      <feFlood
         result="flood"
         in="SourceGraphic"
         flood-opacity="0.439216"
         flood-color="rgb(153,179,255)"
         id="feFlood97" />
      <feGaussianBlur
         result="blur"
         in="SourceGraphic"
         stdDeviation="1.509 2.761"
         id="feGaussianBlur97" />
      <feOffset
         result="offset"
         in="blur"
         dx="0.000000"
         dy="0.000000"
         id="feOffset97" />
      <feComposite
         result="comp1"
         operator="in"
         in="flood"
         in2="offset"
         id="feComposite97" />
      <feComposite
         result="comp2"
         operator="over"
         in="SourceGraphic"
         in2="comp1"
         id="feComposite98" />
    </filter>
  </defs>
  <g
     id="layer1"
     transform="translate(-34.395831,-85.989587)">
    <g
       id="g105"
       transform="matrix(4.6753876,0.08153899,0.0099582,4.239339,-404.52774,-406.80074)">
      <g
         id="g111"
         transform="matrix(1.2335788,0,0,1.2862695,76.413396,-65.108772)"
         style="display:inline;filter:url(#filter98)">
        <g
           id="g110"
           transform="translate(-0.00805385,0.00864665)">
          <path
             id="path106"
             style="opacity:1;fill:#fefff7;fill-opacity:1;stroke:none;stroke-width:0.264583;stroke-dasharray:none;stroke-opacity:1;paint-order:stroke fill markers"
             d="m 25.691184,147.78959 c -2.273035,-4e-5 -4.115785,1.84248 -4.116028,4.11551 -4.4e-5,2.27324 1.84279,4.11607 4.116028,4.11603 2.273238,4e-5 4.116071,-1.84279 4.116027,-4.11603 -2.43e-4,-2.27303 -1.842992,-4.11555 -4.116027,-4.11551 z m 0,2.7125 c 0.87834,-1.9e-4 1.590504,0.71174 1.5906,1.59008 1.91e-4,0.87854 -0.712057,1.59079 -1.5906,1.5906 -0.878342,-9e-5 -1.590275,-0.71226 -1.590084,-1.5906 9.6e-5,-0.87814 0.711945,-1.58999 1.590084,-1.59008 z" />
          <path
             id="path108"
             style="baseline-shift:baseline;display:inline;overflow:visible;vector-effect:none;fill:#fefff7;paint-order:stroke fill markers;enable-background:accumulate;stop-color:#000000;stop-opacity:1"
             d="m 20.420473,150.87984 c 1.03175,-0.092 1.03331,-0.13869 2.98939,-0.37837 1.95207,-0.2392 2.27247,1.03737 2.27247,1.62952 10e-6,0.56118 -0.61088,1.64701 -2.45861,1.53446 -1.76588,-0.10756 -1.788052,-0.13132 -2.783451,-0.22149 -3.139082,-0.28436 -6.170349,-0.51219 -6.170339,-1.31297 10e-6,-0.80078 3.54564,-1.01889 6.15054,-1.25115 z" />
          <path
             id="path2"
             style="baseline-shift:baseline;display:inline;overflow:visible;vector-effect:none;fill:#fefff7;paint-order:stroke fill markers;enable-background:accumulate;stop-color:#000000;stop-opacity:1"
             d="m 30.940377,153.1919 c -1.031752,0.092 -1.033306,0.13868 -2.989388,0.37837 -1.952065,0.2392 -2.272474,-1.03737 -2.272466,-1.62953 6e-6,-0.56118 0.610876,-1.64701 2.458606,-1.53445 1.765881,0.10755 1.788054,0.13131 2.783451,0.22149 3.139083,0.28436 6.170354,0.51219 6.170337,1.31297 -4.4e-5,0.80078 -3.545636,1.01888 -6.15054,1.25115 z" />
          <path
             id="path3"
             style="baseline-shift:baseline;display:inline;overflow:visible;vector-effect:none;fill:#fefff7;paint-order:stroke fill markers;enable-background:accumulate;stop-color:#000000;stop-opacity:1"
             d="m 24.483514,157.52786 c -0.06657,-1.08982 -0.110683,-1.09054 -0.298593,-3.15542 -0.187534,-2.06064 1.025815,-2.42491 1.585699,-2.43662 0.530601,-0.0111 1.545174,0.61374 1.40219,2.57095 -0.136645,1.87051 -0.159549,1.89444 -0.264505,2.9494 -0.330987,3.32692 -0.606391,6.53865 -1.363535,6.55448 -0.757145,0.0158 -0.893202,-3.73128 -1.061256,-6.48279 z" />
          <path
             id="path4"
             style="baseline-shift:baseline;display:inline;overflow:visible;vector-effect:none;fill:#fefff7;paint-order:stroke fill markers;enable-background:accumulate;stop-color:#000000;stop-opacity:1"
             d="m 26.877768,146.35158 c 0.06657,1.08982 0.110674,1.09054 0.298592,3.15542 0.187535,2.06064 -1.025814,2.42491 -1.585707,2.43662 -0.530601,0.0111 -1.545174,-0.61374 -1.402181,-2.57095 0.136636,-1.87051 0.15954,-1.89444 0.264505,-2.9494 0.330987,-3.32692 0.60639,-6.53865 1.363535,-6.55448 0.757144,-0.0158 0.893193,3.73128 1.061256,6.48279 z" />
        </g>
        <ellipse
           style="opacity:1;fill:#82b1ba;fill-opacity:1;stroke:none;stroke-width:0.0749501;stroke-dasharray:none;stroke-opacity:1;paint-order:stroke fill markers"
           id="ellipse110"
           cx="25.77413"
           cy="152.08226"
           rx="2.0602899"
           ry="1.9410448" />
        <ellipse
           style="fill:#82b1ba;fill-opacity:1;stroke-width:0.475941"
           id="path1"
           cx="26.039503"
           cy="152.42088"
           transform="matrix(0.99982992,-0.01844286,-0.00222089,0.99999753,0,0)"
           rx="2.3019607"
           ry="2.4343302" />
      </g>
      <g
         id="g114"
         style="fill:#82b1ba;fill-opacity:1">
        <rect
           style="opacity:1;fill:#82b1ba;fill-opacity:1;stroke:#ffffff;stroke-width:0.673864;stroke-dasharray:none;stroke-opacity:1;paint-order:stroke fill markers"
           id="rect111"
           width="1.8520833"
           height="3.96875"
           x="166.95146"
           y="15.342217"
           ry="0"
           transform="rotate(40.412045)" />
        <rect
           style="fill:#82b1ba;fill-opacity:1;stroke:#ffffff;stroke-width:0.673864;stroke-dasharray:none;stroke-opacity:1;paint-order:stroke fill markers"
           id="rect112"
           width="1.8520833"
           height="3.96875"
           x="167.12077"
           y="33.118183"
           ry="0"
           transform="rotate(42.773601)" />
        <rect
           style="fill:#82b1ba;fill-opacity:1;stroke:#ffffff;stroke-width:0.673864;stroke-dasharray:none;stroke-opacity:1;paint-order:stroke fill markers"
           id="rect113"
           width="1.8520833"
           height="3.96875"
           x="21.267393"
           y="-158.08826"
           ry="0"
           transform="rotate(132.7736)" />
        <rect
           style="fill:#82b1ba;fill-opacity:1;stroke:#ffffff;stroke-width:0.673864;stroke-dasharray:none;stroke-opacity:1;paint-order:stroke fill markers"
           id="rect114"
           width="1.8520833"
           height="3.96875"
           x="22.045572"
           y="-183.21242"
           ry="0"
           transform="rotate(132.7736)" />
      </g>
    </g>
  </g>
</svg>
