<?xml version="1.0" encoding="UTF-8" standalone="no"?>
<!-- Created with Inkscape (http://www.inkscape.org/) -->

<svg
   width="155.01938mm"
   height="136.26042mm"
   viewBox="0 0 155.01938 136.26042"
   version="1.1"
   id="svg1"
   xmlns="http://www.w3.org/2000/svg"
   xmlns:svg="http://www.w3.org/2000/svg">
  <defs
     id="defs1">
    <filter
       style="color-interpolation-filters:sRGB"
       id="filter98"
       x="-0.093997227"
       y="-0.10442496"
       width="1.1879945"
       height="1.2088499">
      <feFlood
         result="flood"
         in="SourceGraphic"
         flood-opacity="0.439216"
         flood-color="rgb(153,179,255)"
         id="feFlood97" />
      <feGaussianBlur
         result="blur"
         in="SourceGraphic"
         stdDeviation="1.000000"
         id="feGaussianBlur97" />
      <feOffset
         result="offset"
         in="blur"
         dx="0.000000"
         dy="0.000000"
         id="feOffset97" />
      <feComposite
         result="comp1"
         operator="in"
         in="flood"
         in2="offset"
         id="feComposite97" />
      <feComposite
         result="comp2"
         operator="over"
         in="SourceGraphic"
         in2="comp1"
         id="feComposite98" />
    </filter>
  </defs>
  <g
     id="layer1"
     transform="translate(-25.135417,-88.635419)">
    <g
       id="g105"
       transform="matrix(4.6753876,0.08153899,0.0099582,4.239339,-404.52774,-406.80074)">
      <g
         id="g111"
         transform="matrix(1.2335788,0,0,1.2862695,76.413396,-65.108772)"
         style="filter:url(#filter98)">
        <g
           id="g110">
          <path
             id="path106"
             style="opacity:1;fill:#fefff7;fill-opacity:1;stroke:none;stroke-width:0.264583;stroke-dasharray:none;stroke-opacity:1;paint-order:stroke fill markers"
             d="m 25.805381,148.15361 c -2.273035,-4e-5 -4.115785,1.84248 -4.116028,4.11551 -4.4e-5,2.27324 1.84279,4.11607 4.116028,4.11603 2.273238,4e-5 4.116071,-1.84279 4.116027,-4.11603 -2.43e-4,-2.27303 -1.842992,-4.11555 -4.116027,-4.11551 z m 0,2.7125 c 0.87834,-1.9e-4 1.590504,0.71174 1.5906,1.59008 1.91e-4,0.87854 -0.712057,1.59079 -1.5906,1.5906 -0.878342,-9e-5 -1.590275,-0.71226 -1.590084,-1.5906 9.6e-5,-0.87814 0.711945,-1.58999 1.590084,-1.59008 z" />
          <path
             id="path107"
             style="baseline-shift:baseline;display:inline;overflow:visible;vector-effect:none;fill:#fefff7;paint-order:stroke fill markers;enable-background:accumulate;stop-color:#000000;stop-opacity:1"
             d="m 32.402004,153.46255 c -1.031757,0.092 -1.033317,0.13869 -2.989392,0.37837 -1.95207,0.2392 -2.272472,-1.03737 -2.272476,-1.62952 -4e-6,-0.56118 0.61088,-1.64701 2.458619,-1.53446 1.765878,0.10756 1.719973,0.0845 3.30605,0.25992 3.13236,0.34639 5.647746,0.47376 5.64774,1.27454 -1.6e-5,0.80078 -3.545648,1.01889 -6.150541,1.25115 z" />
          <path
             id="path108"
             style="baseline-shift:baseline;display:inline;overflow:visible;vector-effect:none;fill:#fefff7;paint-order:stroke fill markers;enable-background:accumulate;stop-color:#000000;stop-opacity:1"
             d="m 19.170417,150.95097 c 1.03175,-0.092 1.03331,-0.13869 2.98939,-0.37837 1.95207,-0.2392 2.27247,1.03737 2.27247,1.62952 10e-6,0.56118 -0.61088,1.64701 -2.45861,1.53446 -1.76588,-0.10756 -1.71998,-0.0845 -3.30605,-0.25992 -3.13236,-0.34639 -5.64775,-0.47376 -5.64774,-1.27454 1e-5,-0.80078 3.54564,-1.01889 6.15054,-1.25115 z" />
          <path
             id="path109"
             style="baseline-shift:baseline;display:inline;overflow:visible;vector-effect:none;fill:#fefff7;paint-order:stroke fill markers;enable-background:accumulate;stop-color:#000000;stop-opacity:1"
             d="m 24.472922,157.34686 c -0.092,-1.03175 -0.13869,-1.03331 -0.37837,-2.98939 -0.2392,-1.95207 1.03737,-2.27247 1.62952,-2.27247 0.56118,-1e-5 1.64701,0.61088 1.53446,2.45861 -0.10756,1.76588 -0.0845,1.71998 -0.25992,3.30605 -0.34639,3.13236 -0.47376,5.64775 -1.27454,5.64774 -0.80078,-1e-5 -1.01889,-3.54564 -1.25115,-6.15054 z" />
          <path
             id="path110"
             style="baseline-shift:baseline;display:inline;overflow:visible;vector-effect:none;fill:#fefff7;paint-order:stroke fill markers;enable-background:accumulate;stop-color:#000000;stop-opacity:1"
             d="m 26.990728,146.66493 c 0.092,1.03175 0.13869,1.03331 0.37837,2.98939 0.2392,1.95207 -1.03737,2.27247 -1.62952,2.27247 -0.56118,10e-6 -1.64701,-0.61088 -1.53446,-2.45861 0.10756,-1.76588 0.0845,-1.71998 0.25992,-3.30605 0.34639,-3.13236 0.47376,-5.64775 1.27454,-5.64774 0.80078,1e-5 1.01889,3.54564 1.25115,6.15054 z" />
        </g>
        <ellipse
           style="opacity:1;fill:#82b1ba;fill-opacity:1;stroke:none;stroke-width:0.0749501;stroke-dasharray:none;stroke-opacity:1;paint-order:stroke fill markers"
           id="ellipse110"
           cx="25.77413"
           cy="152.08226"
           rx="2.0602899"
           ry="1.9410448" />
      </g>
      <g
         id="g114"
         style="fill:#82b1ba;fill-opacity:1">
        <rect
           style="opacity:1;fill:#82b1ba;fill-opacity:1;stroke:#ffffff;stroke-width:0.673864;stroke-dasharray:none;stroke-opacity:1;paint-order:stroke fill markers"
           id="rect111"
           width="1.8520833"
           height="3.96875"
           x="166.95146"
           y="15.342217"
           ry="0"
           transform="rotate(40.412045)" />
        <rect
           style="fill:#82b1ba;fill-opacity:1;stroke:#ffffff;stroke-width:0.673864;stroke-dasharray:none;stroke-opacity:1;paint-order:stroke fill markers"
           id="rect112"
           width="1.8520833"
           height="3.96875"
           x="167.12077"
           y="33.118183"
           ry="0"
           transform="rotate(42.773601)" />
        <rect
           style="fill:#82b1ba;fill-opacity:1;stroke:#ffffff;stroke-width:0.673864;stroke-dasharray:none;stroke-opacity:1;paint-order:stroke fill markers"
           id="rect113"
           width="1.8520833"
           height="3.96875"
           x="21.267393"
           y="-158.08826"
           ry="0"
           transform="rotate(132.7736)" />
        <rect
           style="fill:#82b1ba;fill-opacity:1;stroke:#ffffff;stroke-width:0.673864;stroke-dasharray:none;stroke-opacity:1;paint-order:stroke fill markers"
           id="rect114"
           width="1.8520833"
           height="3.96875"
           x="22.045572"
           y="-183.21242"
           ry="0"
           transform="rotate(132.7736)" />
      </g>
    </g>
  </g>
</svg>
