<?xml version="1.0" encoding="UTF-8" standalone="no"?>
<!-- Uploaded to: SVG Repo, www.svgrepo.com, Generator: SVG Repo Mixer Tools -->

<svg
   fill="#000000"
   width="800px"
   height="800px"
   viewBox="0 0 16 16"
   version="1.1"
   id="svg1"
   sodipodi:docname="wand.svg"
   inkscape:export-filename="wand.svg"
   inkscape:export-xdpi="96"
   inkscape:export-ydpi="96"
   inkscape:version="1.4 (86a8ad7, 2024-10-11)"
   xmlns:inkscape="http://www.inkscape.org/namespaces/inkscape"
   xmlns:sodipodi="http://sodipodi.sourceforge.net/DTD/sodipodi-0.dtd"
   xmlns:xlink="http://www.w3.org/1999/xlink"
   xmlns="http://www.w3.org/2000/svg"
   xmlns:svg="http://www.w3.org/2000/svg">
  <defs
     id="defs1">
    <linearGradient
       id="linearGradient1"
       inkscape:collect="always">
      <stop
         style="stop-color:#09203f;stop-opacity:1;"
         offset="0"
         id="stop1" />
      <stop
         style="stop-color:#537895;stop-opacity:1;"
         offset="1"
         id="stop2" />
    </linearGradient>
    <linearGradient
       inkscape:collect="always"
       xlink:href="#linearGradient1"
       id="linearGradient2"
       x1="0.55"
       y1="7.755"
       x2="16"
       y2="7.755"
       gradientUnits="userSpaceOnUse" />
  </defs>
  <sodipodi:namedview
     id="namedview1"
     pagecolor="#ffffff"
     bordercolor="#000000"
     borderopacity="0.25"
     inkscape:showpageshadow="2"
     inkscape:pageopacity="0.0"
     inkscape:pagecheckerboard="0"
     inkscape:deskcolor="#d1d1d1"
     inkscape:zoom="1.41625"
     inkscape:cx="400"
     inkscape:cy="400"
     inkscape:window-width="2560"
     inkscape:window-height="1351"
     inkscape:window-x="2551"
     inkscape:window-y="-9"
     inkscape:window-maximized="1"
     inkscape:current-layer="svg1" />
  <path
     d="M12.52.55l-5,5h0L.55,12.51l3,3,12-12Zm-4,6,4-4,1,1-4,4.05ZM2.77,3.18A3.85,3.85,0,0,1,5.32,5.73h0A3.85,3.85,0,0,1,7.87,3.18h0A3.82,3.82,0,0,1,5.32.64h0A3.82,3.82,0,0,1,2.77,3.18ZM8.5,2.55h0A2,2,0,0,1,9.78,1.27h0A1.92,1.92,0,0,1,8.5,0h0A1.88,1.88,0,0,1,7.23,1.27h0A1.92,1.92,0,0,1,8.5,2.55Zm-6.36,0h0A1.92,1.92,0,0,1,3.41,1.27h0A1.88,1.88,0,0,1,2.14,0h0A1.92,1.92,0,0,1,.86,1.27h0A2,2,0,0,1,2.14,2.55ZM14.73,6.22h0a1.94,1.94,0,0,1-1.28,1.27h0a1.94,1.94,0,0,1,1.28,1.27h0A1.9,1.9,0,0,1,16,7.49h0A1.9,1.9,0,0,1,14.73,6.22Z"
     id="path1"
     style="fill:url(#linearGradient2)" />
</svg>
